# Blender v2.79 (sub 0) OBJ File: ''
# www.blender.org
mtllib kyle.mtl
o Shape_IndexedFaceSet.470
v 0.224107 -0.112007 -8.645680
v -5.046467 6.476197 -6.669206
v -5.375854 -0.112007 -8.645680
v -5.705259 6.476197 5.848377
v -6.364091 -0.112006 8.483664
v -9.658190 6.476197 -0.739820
v 11.634665 -0.112006 -0.739820
v -0.224107 6.476197 5.848377
v 6.364091 -0.112006 8.483664
v -0.224107 -0.112006 7.166020
v 5.375854 -0.112007 -8.645680
v -0.224107 -0.112007 -8.645680
v 5.046467 6.476197 -6.669206
v 9.658190 6.476197 -0.739820
v -16.799900 27.778118 5.848376
v 0.224107 -0.112006 7.166020
v 0.224107 6.476197 5.848377
v 0.224107 6.476197 -6.669206
v 22.106302 20.671740 -1.723726
v 18.800161 17.944403 1.557986
v 21.058233 15.114551 0.058503
v 20.222601 16.744692 2.458330
v 22.650505 19.239170 0.704940
v 20.984951 17.528862 -3.415686
v 22.526674 16.324730 -1.880030
v 24.329132 18.275824 -1.311728
v 24.030331 16.176432 0.733766
v 14.590550 20.745829 -0.475274
v 18.752167 20.235237 -1.190479
v 14.935919 18.495325 1.892114
v 18.911793 18.308718 -2.720066
v 15.893496 18.213125 -3.452619
v 6.588198 13.979311 -7.986850
v 14.695703 18.495327 -3.615774
v 10.541108 4.542909 -7.328038
v 12.188177 3.884089 2.554278
v 6.258811 3.884089 9.801308
v 9.223503 20.567514 -0.739821
v 10.541128 14.638131 1.895446
v -11.634665 -0.112006 -0.739820
v 18.616789 15.528988 -1.166549
v 20.982386 15.484993 -2.118648
v 15.016445 15.342996 -0.321675
v 10.917146 18.368238 1.654780
v 11.800729 14.825727 -1.923415
v 11.199959 13.979311 -2.057464
v 10.587720 19.077751 -4.692751
v -18.752167 20.235237 -1.190479
v -22.106308 20.671757 -1.723731
v -20.222601 16.744692 2.458330
v -18.616789 15.528988 -1.166549
v -15.016445 15.342996 -0.321675
v 0.000000 18.591055 -6.010395
v -15.893496 18.213125 -3.452619
v 0.000000 3.884089 -0.081008
v -12.188177 3.884089 2.554278
v -6.258811 3.884089 9.801308
v -10.541128 14.638131 1.895446
v 7.247029 12.002851 5.848376
v 0.000000 19.908695 3.871921
v 8.235247 15.296951 3.871921
v 0.000000 14.638131 7.166020
v 0.000000 10.026390 9.142475
v 20.804865 19.832033 1.468198
v -0.224107 6.476197 -6.669206
v 0.000000 4.542908 -10.622135
v -10.541108 4.542909 -7.328038
v -11.199959 13.979311 -2.057464
v -20.804865 19.832033 1.468198
v -18.800161 17.944403 1.557986
v -20.982386 15.484993 -2.118648
v -24.329132 18.275824 -1.311728
v -22.650505 19.239170 0.704940
v -21.058228 15.114533 0.058509
v -22.526674 16.324730 -1.880030
v -20.984951 17.528862 -3.415686
v -18.911793 18.308718 -2.720066
v -24.030331 16.176432 0.733766
v -14.590550 20.745829 -0.475274
v -14.695703 18.495327 -3.615774
v -14.935919 18.495325 1.892114
v -6.588198 13.979311 -7.986850
v -11.800729 14.825727 -1.923415
v -10.587720 19.077751 -4.692751
v -10.917146 18.368238 1.654780
v -7.247029 12.002851 5.848376
v -8.235247 15.296951 3.871921
v -9.223503 20.567514 -0.739821
v -13.176414 44.907452 9.801306
v -12.847008 35.683964 9.801306
v -14.164652 39.636887 5.848375
v 12.847008 35.683964 9.801306
v -9.882316 40.954525 8.483662
v -9.223484 25.142836 -13.257423
v -16.799900 24.484020 -3.375108
v -17.788158 24.484020 2.224862
v -15.482275 36.342789 -8.645681
v 0.000000 48.860374 -19.186790
v 0.000000 51.495651 10.460117
v 0.000000 44.248631 13.095405
v 16.141108 38.978065 -1.398653
v 13.176414 44.907452 9.801306
v 15.482275 36.342789 -8.645681
v -10.541108 49.519196 -14.575048
v -16.141108 51.495651 -4.692753
v 17.788158 24.484020 2.224862
v 0.000000 35.683964 -19.186789
v 0.000000 44.907452 15.071859
v 5.705259 6.476197 5.848377
v 9.882316 40.954525 8.483662
v -10.541108 51.495651 5.189563
v -9.223484 37.660423 17.048317
v 0.000000 38.319244 19.024792
v 9.223484 37.660423 17.048317
v -10.211702 36.342785 13.754217
v 19.105782 27.119301 2.554277
v 16.141108 51.495651 -4.692753
v 16.799900 27.778118 5.848376
v 11.199959 39.636887 -11.939780
v -16.141108 38.978065 -1.398653
v -11.199959 39.636887 -11.939780
v 10.541108 51.495651 5.189563
v 14.164652 39.636887 5.848375
v -18.776375 32.389862 -1.398653
v -19.105782 27.119301 2.554277
v 18.776375 32.389862 -1.398653
v 16.799900 24.484020 -3.375108
v 10.541108 49.519196 -14.575048
v 10.211701 24.484016 11.118931
v 10.211702 17.236994 3.871921
v -10.211702 17.236994 3.871921
v 0.000000 17.236994 9.142475
v -10.211701 24.484016 11.118931
v 0.000000 24.484018 15.730673
v 10.211702 36.342785 13.754217
v 13.835226 30.413399 5.848375
v 15.811682 30.413399 -9.963306
v -15.811682 30.413399 -9.963306
v -14.823444 23.825197 1.895446
v 0.000000 37.001606 16.389503
v 0.000000 17.895815 -11.939780
v 14.823444 23.825197 1.895446
v 9.882317 21.189915 -6.669207
v 0.000000 15.260532 4.530733
v -9.882317 21.189915 -6.669207
v 0.000000 15.260532 -5.351563
v 0.000000 23.825197 -16.551521
v 9.223484 25.142836 -13.257423
v -13.835226 30.413399 5.848375
vt 0.375006 0.281239
vt 0.375000 0.343750
vt 0.531258 0.281239
vt 0.556152 0.208008
vt 0.556152 0.208008
vt 0.556344 0.207691
vt 0.541024 0.196338
vt 0.468757 0.218738
vt 0.468757 0.196338
vt 0.541024 0.196338
vt 0.541024 0.218738
vt 0.468757 0.218738
vt 0.541024 0.218738
vt 0.468757 0.196338
vt 0.468757 0.196338
vt 0.556152 0.208008
vt 0.587402 0.208008
vt 0.587402 0.208008
vt 0.468757 0.196338
vt 0.541024 0.196338
vt 0.468757 0.196338
vt 0.541024 0.218738
vt 0.541024 0.196338
vt 0.541024 0.218738
vt 0.468757 0.196338
vt 0.468757 0.218738
vt 0.541024 0.196338
vt 0.468757 0.218738
vt 0.730469 0.183594
vt 0.812512 0.218738
vt 0.781262 0.218738
vt 0.280034 0.280446
vt 0.281254 0.218738
vt 0.218753 0.281239
vt 0.556152 0.208008
vt 0.587402 0.208008
vt 0.541024 0.196338
vt 0.125000 0.250000
vt 0.125000 0.250000
vt 0.125002 0.249989
vt 0.125002 0.249989
vt 0.125000 0.250000
vt 0.125002 0.249989
vt 0.125000 0.250000
vt 0.125002 0.249989
vt 0.125002 0.249989
vt 0.125002 0.249989
vt 0.125002 0.249989
vt 0.125002 0.249989
vt 0.125002 0.249989
vt 0.125002 0.249989
vt 0.851392 0.424430
vt 1.000015 0.624994
vt 0.927749 0.650935
vt 1.000015 0.812497
vt 0.926589 0.650629
vt 0.940017 0.808103
vt 0.805920 0.415946
vt 0.958877 0.757076
vt 0.860121 0.534844
vt 0.850233 0.725765
vt 0.908156 0.831113
vt 1.000015 0.812497
vt 0.840894 0.587579
vt 0.828125 0.625977
vt 0.824292 0.646113
vt 0.774414 0.574219
vt 0.687988 0.484375
vt 0.773144 0.480278
vt 0.933105 0.621582
vt 0.859863 0.944824
vt 0.829102 0.627441
vt 0.492683 0.979187
vt 0.492228 0.960265
vt 0.860318 0.944396
vt 0.937514 0.937499
vt 1.000000 0.875000
vt 1.000000 0.937500
vt 0.875013 0.874998
vt 0.828443 0.625971
vt 0.915297 0.973632
vt 0.860121 0.944518
vt 0.704845 0.985351
vt 0.489632 0.791073
vt 0.280461 0.985351
vt 0.730602 0.719478
vt 0.486580 0.420829
vt 0.489632 0.314198
vt 0.541016 0.196777
vt 0.556344 0.207691
vt 0.587594 0.207691
vt 0.556344 0.207691
vt 0.774609 0.573785
vt 0.125000 0.250000
vt 0.125002 0.249989
vt 0.125000 0.250000
vt 0.125002 0.249989
vt 0.125000 0.250000
vt 0.125002 0.249989
vt 0.125002 0.249989
vt 0.125002 0.249989
vt 0.125002 0.249989
vt 0.125002 0.249989
vt 0.125002 0.249989
vt 0.125002 0.249989
vt 0.125002 0.249989
vt 0.125002 0.249989
vt 0.062501 0.749996
vt 0.000000 0.812497
vt 0.000000 0.812497
vt 0.062501 0.812497
vt 0.062501 0.624994
vt 0.000000 0.624994
vt 0.129030 0.725765
vt 0.291081 0.484123
vt 0.173342 0.415946
vt 0.154971 0.646113
vt 0.150820 0.625971
vt 0.127626 0.558831
vt 0.102296 0.532647
vt 0.062501 0.624994
vt 0.125185 0.944518
vt 0.492683 0.959289
vt 0.248661 0.719478
vt 0.070008 0.973632
vt 0.206058 0.480278
vt 0.489632 0.543755
vt 0.541016 0.196777
vt 0.587594 0.207691
vt 0.587594 0.207691
vt 0.556344 0.207691
vt 0.155762 0.623047
vt 0.055176 0.875000
vt 0.051758 0.617188
vt 0.875000 0.937500
vt 0.127441 0.424805
vt 0.062501 0.812497
vt 0.192383 0.544922
vt 0.875013 0.812497
vt 0.937514 0.874998
vt 0.185916 0.044846
vt 0.185916 0.022141
vt 0.312505 0.031235
vt 0.531258 0.312490
vt 0.343755 0.281239
vt 0.375006 0.312490
vt 0.748425 0.044846
vt 0.750011 0.031235
vt 0.562509 0.031235
vt 0.218753 0.312490
vt 0.873426 0.022141
vt 0.873426 0.044846
vt 0.531258 0.312490
vt 0.560922 0.044846
vt 0.312505 0.249989
vt 0.375006 0.343740
vt 0.250004 0.218738
vt 0.187503 0.281239
vt 0.218753 0.312490
vt 0.281254 0.281239
vt 0.245792 0.312490
vt 0.281254 0.249989
vt 0.687510 0.281239
vt 0.687500 0.468750
vt 0.656250 0.312500
vt 0.812500 0.218750
vt 0.781250 0.218750
vt 0.281254 0.343740
vt 0.281254 0.374990
vt 0.531258 0.312490
vt 0.325195 0.364746
vt 0.566406 0.291504
vt 0.843763 0.218738
vt 0.812512 0.281239
vt 0.718761 0.281239
vt 0.812512 0.218738
vt 0.560922 0.022141
vt 0.812512 0.031235
vt 0.906264 0.281239
vt 0.687510 0.312490
vt 0.875013 0.281239
vt 0.816480 0.269276
vt 0.846754 0.312490
vt 0.560922 0.022141
vt 0.312505 0.031235
vt 0.875013 0.312490
vt 0.656260 0.374990
vt 0.556344 0.207691
vt 0.812943 0.031622
vt 0.310918 0.044846
vt 0.781250 0.156250
vt 0.531258 0.374990
vt 0.343755 0.374990
vt 0.687510 0.343740
vt 0.687510 0.281239
vt 0.875013 0.281239
vt 0.781262 0.187488
vt 0.406256 0.205493
vt 0.406256 0.205493
vt 0.406256 0.205493
vt 0.406256 0.205493
vt 0.406256 0.205493
vt 0.406256 0.205493
vt 0.406250 0.205566
vt 0.406256 0.205493
vt 0.406256 0.205493
vt 0.406250 0.205566
vt 0.406256 0.205493
vt 0.406256 0.205493
vt 0.406256 0.205493
vt 0.406250 0.205566
vt 0.406250 0.205566
vt 0.406256 0.205493
vt 0.406250 0.205566
vt 0.406256 0.205493
vt 0.406256 0.205493
vt 0.406256 0.205493
vt 0.406256 0.205493
vt 0.406256 0.205493
vt 0.406250 0.205566
vt 0.406250 0.205566
vt 0.406250 0.205566
vt 0.406256 0.205493
vt 0.406256 0.205493
vt 0.500008 1.000000
vt 1.000015 -0.000015
vt 0.500008 -0.000015
vt 1.000015 1.000000
vt 0.000000 -0.000015
vt 0.000000 1.000000
vt 1.000015 1.000000
vt 1.000015 -0.000015
vt 0.500008 1.000000
vt 0.000000 -0.000015
vt 0.000000 1.000000
vt 0.500008 -0.000015
vn -0.4923 0.7380 0.4614
vn -0.7443 0.6584 -0.1117
vn 0.0000 0.7566 0.6538
vn -0.8710 -0.4881 -0.0555
vn 0.5635 -0.4931 -0.6627
vn 0.6205 -0.5377 0.5708
vn -0.4977 0.3585 0.7897
vn -0.9564 0.2840 -0.0679
vn -0.3600 -0.5109 -0.7806
vn -0.4446 0.2777 -0.8516
vn -0.3791 -0.4670 0.7989
vn 0.7739 0.1830 0.6063
vn 0.7644 0.1852 -0.6175
vn -0.6205 -0.5377 0.5708
vn 0.8710 -0.4881 -0.0555
vn 0.3791 -0.4670 0.7989
vn -0.7644 0.1852 -0.6175
vn -0.7739 0.1830 0.6063
vn 0.3600 -0.5109 -0.7806
vn 0.9564 0.2840 -0.0679
vn 0.4977 0.3585 0.7897
vn -0.5635 -0.4931 -0.6627
vn 0.4446 0.2777 -0.8516
vn 0.5665 -0.2215 0.7937
vn 0.6800 0.6493 0.3404
vn 0.9033 -0.0729 0.4226
vn -0.5665 -0.2215 0.7937
vn -0.6800 0.6493 0.3404
vn -0.1983 -0.4176 0.8867
vn -0.1910 -0.9574 -0.2164
vn -0.0583 0.1438 -0.9879
vn 0.0664 -0.0834 -0.9943
vn 0.3268 0.8710 -0.3668
vn -0.0939 0.9820 -0.1638
vn 0.0204 0.6909 0.7226
vn -0.3374 0.0916 0.9369
vn 0.0587 -0.9794 0.1933
vn 0.1073 -0.8126 -0.5728
vn -0.1551 -0.3214 0.9341
vn 0.9386 0.1780 -0.2954
vn 0.5893 0.5311 0.6088
vn 0.7851 -0.4709 0.4022
vn 0.5464 -0.6166 -0.5667
vn 0.3054 0.5085 -0.8050
vn 0.0952 0.9874 0.1260
vn 0.2863 0.1353 -0.9485
vn 0.0358 0.1381 0.9897
vn 0.0080 0.9842 0.1768
vn 0.0806 -0.0060 -0.9967
vn 0.0854 0.4227 0.9022
vn 0.2141 -0.9619 0.1698
vn 0.7624 -0.0639 0.6438
vn 0.9485 -0.1377 -0.2852
vn 0.5526 -0.7007 -0.4513
vn 0.3575 0.2653 -0.8954
vn 0.0000 0.7696 -0.6385
vn 0.4565 0.3814 0.8038
vn 0.6255 -0.5321 -0.5705
vn 0.0000 -0.9993 -0.0371
vn 0.0000 -0.5658 -0.8245
vn -0.3575 0.2653 -0.8954
vn 0.7774 -0.5830 0.2360
vn 0.3802 -0.5161 0.7675
vn 0.0000 0.3259 0.9454
vn -0.3802 -0.5161 0.7675
vn 0.5159 0.3088 0.7990
vn 0.0000 0.8475 0.5307
vn 0.0583 0.1438 -0.9879
vn -0.3268 0.8710 -0.3668
vn 0.0939 0.9820 -0.1638
vn -0.0664 -0.0834 -0.9943
vn 0.1910 -0.9574 -0.2164
vn -0.1073 -0.8126 -0.5728
vn 0.1551 -0.3214 0.9341
vn 0.3374 0.0916 0.9369
vn -0.0204 0.6909 0.7226
vn -0.9386 0.1780 -0.2954
vn -0.5893 0.5311 0.6088
vn -0.7851 -0.4709 0.4022
vn -0.0587 -0.9794 0.1933
vn -0.5464 -0.6166 -0.5667
vn -0.0806 -0.0060 -0.9967
vn -0.2863 0.1353 -0.9485
vn -0.0952 0.9874 0.1260
vn -0.2141 -0.9619 0.1698
vn -0.3054 0.5085 -0.8050
vn -0.0080 0.9842 0.1768
vn -0.5526 -0.7007 -0.4513
vn -0.9485 -0.1377 -0.2852
vn -0.7624 -0.0639 0.6438
vn -0.0854 0.4227 0.9022
vn -0.0358 0.1381 0.9897
vn -0.6255 -0.5321 -0.5705
vn -0.5159 0.3088 0.7990
vn -0.7774 -0.5830 0.2360
vn -0.4565 0.3814 0.8038
vn 0.0000 0.4598 0.8880
vn -0.9033 -0.0729 0.4226
vn -0.6404 0.7225 -0.2606
vn 0.0000 -0.0925 -0.9957
vn -0.7139 0.0133 -0.7001
vn -0.5382 0.5291 -0.6560
vn 0.4935 -0.5801 0.6480
vn 0.4499 -0.2821 0.8473
vn 0.0000 -0.2361 0.9717
vn -0.9593 -0.1639 0.2300
vn 0.6404 0.7225 -0.2606
vn 0.0000 0.5770 -0.8167
vn 0.0000 -0.6020 0.7985
vn -0.9535 0.2992 0.0368
vn -0.9863 0.1526 -0.0630
vn -0.0063 -0.8865 -0.4627
vn -0.7719 -0.1840 -0.6085
vn -0.1714 -0.9492 0.2640
vn -0.8166 0.3613 -0.4501
vn 0.7528 0.6541 -0.0741
vn 0.5382 0.5291 -0.6560
vn 0.7443 0.6584 -0.1117
vn 0.9535 0.2992 0.0368
vn -0.7528 0.6541 -0.0741
vn 0.0000 0.9551 0.2963
vn 0.7719 -0.1840 -0.6085
vn 0.7139 0.0133 -0.7001
vn 0.8166 0.3613 -0.4501
vn 0.0000 0.9274 0.3740
vn 0.9863 0.1526 -0.0630
vn 0.0063 -0.8865 -0.4627
vn 0.1714 -0.9492 0.2640
vn -0.4499 -0.2821 0.8473
vn 0.9593 -0.1639 0.2300
vn 0.5452 -0.4141 -0.7289
vn -0.4935 -0.5801 0.6480
vn 0.0000 -0.4233 -0.9060
vn -0.5452 -0.4141 -0.7289
vn 0.4923 0.7380 0.4614
vn 0.1983 -0.4176 0.8867
vn 0.6254 -0.3755 0.6840
vn -0.6254 -0.3755 0.6840
vn -0.9346 -0.3409 0.1014
vn -0.6140 -0.7048 -0.3552
vn 0.6140 -0.7048 -0.3552
vn 0.9346 -0.3409 0.1014
vn 0.0000 -0.9651 -0.2619
vn 0.0000 -0.8180 -0.5752
vn 0.5734 -0.7973 0.1884
vn -0.5734 -0.7973 0.1884
vn 0.0000 -0.9790 0.2039
vn 0.0000 -0.7927 0.6095
vn 0.0000 -0.3964 0.9180
usemtl kyle_body
s 1
f 111/1/1 93/2/2 99/3/3
f 40/4/4 1/5/5 16/6/6
f 40/7/4 4/8/7 6/9/8
f 1/10/5 3/11/9 2/12/10
f 3/11/9 40/7/4 6/9/8
f 5/13/11 17/14/12 4/8/7
f 1/10/5 2/12/10 18/15/13
f 3/11/9 6/9/8 2/12/10
f 10/16/14 7/17/15 9/18/16
f 65/19/17 10/20/14 8/21/18
f 10/20/14 9/22/16 8/21/18
f 7/23/15 11/24/19 14/25/20
f 109/26/21 7/23/15 14/25/20
f 11/24/19 12/27/22 13/28/23
f 13/28/23 12/27/22 65/19/17
f 14/25/20 11/24/19 13/28/23
f 136/29/24 123/30/25 92/31/26
f 149/32/27 91/33/28 15/34/29
f 9/22/16 7/23/15 109/26/21
f 40/4/4 16/35/6 5/36/11
f 5/13/11 16/37/6 17/14/12
f 16/37/6 18/15/13 17/14/12
f 40/7/4 5/13/11 4/8/7
f 41/38/30 31/39/31 24/40/32
f 24/40/32 31/39/31 19/41/33
f 29/42/34 19/41/33 31/39/31
f 64/43/35 29/42/34 20/44/36
f 29/42/34 64/43/35 19/41/33
f 21/45/37 41/38/30 42/46/38
f 22/47/39 41/38/30 21/45/37
f 26/48/40 19/41/33 23/49/41
f 26/48/40 23/49/41 27/50/42
f 25/51/43 24/40/32 26/48/40
f 22/47/39 23/49/41 64/43/35
f 24/40/32 25/51/43 42/46/38
f 42/46/38 25/51/43 21/45/37
f 27/50/42 25/51/43 26/48/40
f 21/45/37 27/50/42 22/47/39
f 24/40/32 19/41/33 26/48/40
f 47/52/44 28/53/45 34/54/46
f 29/55/34 30/56/47 20/57/36
f 28/53/45 47/52/44 38/58/48
f 32/59/49 28/53/45 29/55/34
f 38/58/48 44/60/50 28/53/45
f 44/60/50 30/56/47 28/53/45
f 20/57/36 43/61/51 41/62/30
f 43/61/51 20/57/36 30/56/47
f 32/59/49 31/63/31 41/62/30
f 30/56/47 29/55/34 28/53/45
f 29/55/34 31/63/31 32/59/49
f 39/64/52 46/65/53 45/66/54
f 47/52/44 33/67/55 53/68/56
f 47/52/44 53/68/56 38/58/48
f 47/52/44 34/54/46 45/66/54
f 44/60/50 38/58/48 61/69/57
f 46/70/53 35/71/58 33/72/55
f 55/73/59 66/74/60 35/75/58
f 66/76/60 33/77/55 35/78/58
f 66/76/60 82/79/61 33/77/55
f 46/80/53 39/64/52 36/81/62
f 36/81/62 35/82/58 46/80/53
f 37/83/63 63/84/64 57/85/65
f 36/81/62 59/86/66 37/83/63
f 57/85/65 55/73/59 37/83/63
f 60/87/67 38/58/48 53/88/56
f 38/58/48 60/87/67 61/69/57
f 39/64/52 61/69/57 59/86/66
f 16/37/6 1/89/5 18/15/13
f 40/90/4 3/91/9 1/92/5
f 41/38/30 22/47/39 20/44/36
f 42/46/38 41/38/30 24/40/32
f 64/43/35 23/49/41 19/41/33
f 23/49/41 22/47/39 27/50/42
f 21/45/37 25/51/43 27/50/42
f 43/61/51 32/59/49 41/62/30
f 39/64/52 43/61/51 44/60/50
f 43/61/51 45/66/54 34/54/46
f 30/56/47 44/60/50 43/61/51
f 32/59/49 43/61/51 34/54/46
f 33/93/55 47/52/44 46/80/53
f 43/61/51 39/64/52 45/66/54
f 47/52/44 45/66/54 46/80/53
f 44/60/50 61/69/57 39/64/52
f 77/94/68 49/95/69 48/96/70
f 76/97/71 51/98/72 71/99/73
f 50/100/74 70/101/75 69/102/76
f 72/103/77 49/95/69 76/97/71
f 49/95/69 73/104/78 69/102/76
f 78/105/79 50/100/74 73/104/78
f 50/100/74 78/105/79 74/106/80
f 71/99/73 75/107/81 76/97/71
f 54/108/82 77/109/68 48/110/70
f 51/111/72 77/109/68 54/108/82
f 80/112/83 54/108/82 79/113/84
f 51/111/72 54/108/82 52/114/85
f 53/88/56 84/115/86 88/116/87
f 83/117/88 68/118/89 58/119/90
f 85/120/91 52/114/85 58/119/90
f 80/112/83 83/117/88 52/114/85
f 52/114/85 85/120/91 81/121/92
f 80/112/83 52/114/85 54/108/82
f 67/122/93 66/123/60 55/73/59
f 57/85/65 86/124/94 56/125/95
f 58/119/90 56/125/95 86/124/94
f 57/85/65 56/125/95 55/73/59
f 86/124/94 57/85/65 63/84/64
f 55/73/59 36/81/62 37/83/63
f 59/86/66 36/81/62 39/64/52
f 56/125/95 58/119/90 68/118/89
f 35/82/58 36/81/62 55/73/59
f 63/84/64 37/83/63 59/86/66
f 86/124/94 87/126/96 58/119/90
f 53/88/56 88/116/87 60/87/67
f 62/127/97 86/124/94 63/84/64
f 87/126/96 62/127/97 60/87/67
f 62/127/97 59/86/66 61/69/57
f 63/84/64 59/86/66 62/127/97
f 64/43/35 20/44/36 22/47/39
f 28/53/45 32/59/49 34/54/46
f 12/128/22 10/20/14 65/19/17
f 11/129/19 7/130/15 12/131/22
f 82/132/61 67/133/93 68/134/89
f 67/135/93 82/79/61 66/76/60
f 68/118/89 67/122/93 56/125/95
f 55/73/59 56/125/95 67/122/93
f 70/101/75 48/96/70 69/102/76
f 49/95/69 69/102/76 48/96/70
f 70/101/75 50/100/74 51/98/72
f 71/99/73 51/98/72 74/106/80
f 74/106/80 51/98/72 50/100/74
f 76/97/71 77/94/68 51/98/72
f 78/105/79 73/104/78 72/103/77
f 78/105/79 75/107/81 74/106/80
f 69/102/76 73/104/78 50/100/74
f 73/104/78 49/95/69 72/103/77
f 74/106/80 75/107/81 71/99/73
f 72/103/77 76/97/71 75/107/81
f 49/95/69 77/94/68 76/97/71
f 72/103/77 75/107/81 78/105/79
f 80/112/83 79/113/84 84/136/86
f 70/137/75 81/121/92 48/110/70
f 88/116/87 84/136/86 79/113/84
f 48/110/70 79/113/84 54/108/82
f 79/113/84 85/120/91 88/116/87
f 79/113/84 81/121/92 85/120/91
f 51/111/72 52/114/85 70/137/75
f 81/121/92 70/137/75 52/114/85
f 79/113/84 48/110/70 81/121/92
f 68/118/89 84/136/86 82/138/61
f 83/117/88 80/112/83 84/136/86
f 68/118/89 83/117/88 84/136/86
f 58/119/90 87/126/96 85/120/91
f 83/117/88 58/119/90 52/114/85
f 82/79/61 84/139/86 53/140/56
f 87/126/96 88/116/87 85/120/91
f 60/87/67 62/127/97 61/69/57
f 87/126/96 86/124/94 62/127/97
f 53/140/56 33/77/55 82/79/61
f 87/126/96 60/87/67 88/116/87
f 90/141/98 89/142/99 93/143/2
f 107/144/100 121/145/101 104/146/102
f 135/147/103 114/148/104 113/149/105
f 91/33/28 125/150/106 15/34/29
f 102/151/107 114/148/104 92/152/26
f 99/3/3 98/153/108 111/1/1
f 113/149/105 140/154/109 135/147/103
f 91/33/28 90/155/98 93/156/2
f 120/157/110 91/33/28 93/156/2
f 124/158/111 95/159/112 125/150/106
f 124/158/111 138/160/113 95/159/112
f 96/161/114 95/159/112 149/32/27
f 15/34/29 96/161/114 149/32/27
f 96/161/114 125/150/106 95/159/112
f 97/162/115 121/145/101 138/160/113
f 138/160/113 149/32/27 95/159/112
f 98/153/108 117/163/116 128/164/117
f 117/163/116 110/165/118 101/166/119
f 110/165/118 92/167/26 123/30/25
f 105/168/120 120/169/110 93/2/2
f 99/170/3 93/171/2 100/172/121
f 99/170/3 100/172/121 110/165/118
f 110/165/118 123/30/25 101/173/119
f 137/174/122 119/175/123 103/176/124
f 93/143/2 89/142/99 108/177/125
f 104/146/102 98/153/108 107/144/100
f 108/177/125 102/151/107 110/178/118
f 101/173/119 126/179/126 103/176/124
f 128/180/117 107/144/100 98/153/108
f 111/1/1 98/153/108 105/168/120
f 104/146/102 121/145/101 105/168/120
f 137/174/122 126/179/126 127/181/127
f 105/168/120 98/153/108 104/146/102
f 105/168/120 121/145/101 120/169/110
f 136/182/24 127/181/127 106/183/128
f 92/152/26 114/148/104 135/147/103
f 108/177/125 100/184/121 93/143/2
f 127/181/127 136/182/24 137/174/122
f 89/142/99 112/185/129 108/177/125
f 110/178/118 100/184/121 108/177/125
f 127/181/127 116/186/130 106/183/128
f 101/173/119 103/176/124 119/175/123
f 119/175/123 148/187/131 107/144/100
f 108/177/125 114/148/104 102/151/107
f 12/131/22 7/130/15 10/188/14
f 8/21/18 9/22/16 109/26/21
f 110/189/118 102/151/107 92/152/26
f 93/156/2 111/1/1 105/168/120
f 89/142/99 90/141/98 112/185/129
f 108/177/125 112/185/129 113/149/105
f 115/190/132 140/154/109 113/149/105
f 113/149/105 112/185/129 115/190/132
f 108/177/125 113/149/105 114/148/104
f 115/190/132 112/185/129 90/141/98
f 123/30/25 126/179/126 101/191/119
f 107/144/100 147/192/133 94/193/134
f 99/3/3 110/194/118 122/195/135
f 106/183/128 116/186/130 118/196/136
f 117/163/116 98/153/108 122/195/135
f 136/182/24 106/183/128 118/196/136
f 15/34/29 125/150/106 96/161/114
f 119/175/123 137/174/122 148/187/131
f 121/145/101 97/162/115 120/157/110
f 97/162/115 124/158/111 120/157/110
f 122/195/135 110/194/118 117/163/116
f 123/30/25 136/182/24 118/196/136
f 126/179/126 137/174/122 103/176/124
f 107/144/100 148/187/131 147/192/133
f 116/186/130 123/30/25 118/196/136
f 120/157/110 124/158/111 91/33/28
f 125/150/106 91/33/28 124/158/111
f 91/33/28 149/32/27 90/155/98
f 119/175/123 128/180/117 117/163/116
f 121/145/101 94/193/134 138/160/113
f 117/163/116 101/197/119 119/175/123
f 107/144/100 94/193/134 121/145/101
f 122/195/135 98/153/108 99/3/3
f 116/186/130 127/181/127 126/179/126
f 138/160/113 124/158/111 97/162/115
f 119/175/123 107/144/100 128/180/117
f 123/30/25 116/186/130 126/179/126
f 136/198/24 135/199/103 129/200/137
f 149/201/27 115/202/132 90/203/98
f 115/202/132 149/204/27 133/205/138
f 139/206/139 149/204/27 138/207/113
f 145/208/140 138/207/113 94/209/134
f 143/210/141 148/211/131 137/212/122
f 142/213/142 137/212/122 136/214/24
f 146/215/143 145/208/140 141/216/144
f 141/216/144 94/209/134 147/217/133
f 145/208/140 94/209/134 141/216/144
f 146/215/143 143/210/141 130/218/145
f 131/219/146 133/205/138 139/206/139
f 135/220/103 136/214/24 92/221/26
f 130/218/145 142/213/142 129/200/137
f 129/200/137 142/213/142 136/214/24
f 141/216/144 147/222/133 148/211/131
f 149/201/27 139/206/139 133/205/138
f 141/216/144 148/211/131 143/210/141
f 143/210/141 137/212/122 142/213/142
f 139/206/139 138/207/113 145/208/140
f 144/223/147 132/224/148 131/219/146
f 144/223/147 130/218/145 132/224/148
f 146/215/143 141/216/144 143/210/141
f 131/219/146 139/206/139 145/208/140
f 131/219/146 145/208/140 146/215/143
f 130/218/145 143/210/141 142/213/142
f 144/223/147 146/215/143 130/218/145
f 144/223/147 131/219/146 146/215/143
usemtl kyle_eyes
f 134/225/149 135/226/103 140/227/109
f 129/228/137 135/226/103 134/225/149
f 134/225/149 140/227/109 115/229/132
f 134/225/149 115/229/132 133/230/138
usemtl kyle_mouth
f 130/231/145 129/232/137 132/233/148
f 132/233/148 133/234/138 131/235/146
f 132/233/148 134/236/149 133/234/138
f 132/233/148 129/232/137 134/236/149
